<?xml version="1.0" encoding="UTF-8"?>
<svg width="80px" height="64px" viewBox="0 0 80 64" version="1.1" xmlns="http://www.w3.org/2000/svg" xmlns:xlink="http://www.w3.org/1999/xlink">
    <!-- Generator: Sketch 55.2 (78181) - https://sketchapp.com -->
    <title>画板</title>
    <desc>Created with Sketch.</desc>
    <defs>
        <linearGradient x1="0%" y1="100%" x2="100%" y2="100%" id="linearGradient-1">
            <stop stop-color="#FFBE40" offset="0%"></stop>
            <stop stop-color="#FF5C38" offset="48.5955564%"></stop>
            <stop stop-color="#FF1559" offset="100%"></stop>
        </linearGradient>
    </defs>
    <g id="画板" stroke="none" stroke-width="1" fill="none" fill-rule="evenodd">
        <g id="编组" transform="translate(0.000000, 32.000000)" fill="url(#linearGradient-1)" fill-rule="nonzero">
            <path d="M77.7636595,21.5936289 C76.6223541,20.6009833 75.1313606,20 73.5,20 C69.9101491,20 67,22.9101491 67,26.5 C67,26.9866484 67.0534802,27.4608059 67.154884,27.9169158 L67.0762657,27.9592458 C66.7210508,27.9862507 66.3621311,28 66,28 L14,28 C6.2680135,28 0,21.7319865 0,14 C0,6.2680135 6.2680135,0 14,0 L66,0 C73.7319865,0 80,6.2680135 80,14 C80,16.7990303 79.1785844,19.4062086 77.7636595,21.5936289 Z M72.5812382,23.1294559 L76.8607731,26.1862665 C77.3101857,26.5072755 77.4142774,27.1318256 77.0932684,27.5812382 C77.0291288,27.6710337 76.9505687,27.7495938 76.8607731,27.8137335 L72.5812382,30.8705441 C72.1318256,31.1915531 71.5072755,31.0874615 71.1862665,30.6380489 C71.0651231,30.4684481 71,30.2652337 71,30.0568107 L71,23.9431893 C71,23.3909046 71.4477153,22.9431893 72,22.9431893 C72.208423,22.9431893 72.4116374,23.0083125 72.5812382,23.1294559 Z" id="形状结合"></path>
        </g>
        <g id="编组" fill="#FF5C38" fill-rule="nonzero">
            <path d="M77.7636595,21.5936289 C77.5118105,21.3745843 77.2429338,21.1746114 76.9592786,20.9959593 C78.2813513,18.9303355 79,16.5208669 79,14 C79,6.82029825 73.1797017,1 66,1 L14,1 C6.82029825,1 1,6.82029825 1,14 C1,21.1797017 6.82029825,27 14,27 L66,27 C66.2652767,27 66.5295328,26.9920675 66.7925466,26.9762691 L67.0097632,26.8593145 C67.0294408,27.2204841 67.0786028,27.5738064 67.154884,27.9169158 L67.0762657,27.9592458 C66.7210508,27.9862507 66.3621311,28 66,28 L14,28 C6.2680135,28 0,21.7319865 0,14 C0,6.2680135 6.2680135,0 14,0 L66,0 C73.7319865,0 80,6.2680135 80,14 C80,16.7990303 79.1785844,19.4062086 77.7636595,21.5936289 Z" id="形状结合" fill-opacity="0.398328234"></path>
            <path d="M76.3974641,21.8047504 C78.0765412,19.5720398 79,16.8575929 79,14 C79,6.82029825 73.1797017,1 66,1 L14,1 C6.82029825,1 1,6.82029825 1,14 C1,21.1797017 6.82029825,27 14,27 L66,27 C66.2652767,27 66.5295328,26.9920675 66.7925466,26.9762691 L76.3974641,21.8047504 Z" id="路径" fill-opacity="0.04"></path>
            <path d="M72.5812382,23.1294559 L76.8607731,26.1862665 C77.3101857,26.5072755 77.4142774,27.1318256 77.0932684,27.5812382 C77.0291288,27.6710337 76.9505687,27.7495938 76.8607731,27.8137335 L72.5812382,30.8705441 C72.1318256,31.1915531 71.5072755,31.0874615 71.1862665,30.6380489 C71.0651231,30.4684481 71,30.2652337 71,30.0568107 L71,23.9431893 C71,23.3909046 71.4477153,22.9431893 72,22.9431893 C72.208423,22.9431893 72.4116374,23.0083125 72.5812382,23.1294559 Z" id="矩形"></path>
        </g>
    </g>
</svg>